<?xml version="1.0" encoding="iso-8859-1"?>
<!-- Uploaded to: SVG Repo, www.svgrepo.com, Generator: SVG Repo Mixer Tools -->
<svg height="800px" width="800px" version="1.1" id="Layer_1" xmlns="http://www.w3.org/2000/svg" xmlns:xlink="http://www.w3.org/1999/xlink" 
	 viewBox="0 0 290.62 290.62" xml:space="preserve">
<g>
	<g>
		<g>
			<g id="XMLID_22_">
				<g>
					<path style="fill:#454D5B;" d="M169.33,195.113c21.006,0,38.132,17.639,38.132,39.319c0,21.712-17.126,39.351-38.132,39.351
						h-50.287c-21.038,0-38.132-17.639-38.132-39.351c0-21.68,17.094-39.319,38.132-39.319L169.33,195.113L169.33,195.113z
						 M184.917,235.33c0-6.061-4.779-11-10.648-11c-5.901,0-10.68,4.939-10.68,11s4.779,10.968,10.68,10.968
						C180.138,246.298,184.917,241.391,184.917,235.33z M127.029,235.33c0-6.061-4.779-11-10.68-11c-5.869,0-10.648,4.939-10.648,11
						s4.779,10.968,10.648,10.968C122.25,246.298,127.029,241.391,127.029,235.33z"/>
					<path style="fill:#EAEEEF;" d="M69.718,60.255l7.024,2.566c-8.435,11.802-13.406,25.817-14.528,40.345l-6.414-2.341
						c-3.913-1.411-7.088-4.362-8.884-8.242c-1.764-3.849-1.988-8.242-0.609-12.283l3.528-10.263c1.379-4.041,4.233-7.28,7.986-9.14
						C61.573,59.069,65.806,58.844,69.718,60.255z"/>
					<path style="fill:#EAEEEF;" d="M209.804,146.943l-0.834,7.954c-1.251,11.738-5.644,22.385-12.219,31.109
						c-8.05-4.875-17.414-7.729-27.421-7.729h-50.287c-9.076,0-17.639,2.341-25.176,6.414c-6.029-8.499-10.038-18.633-11.225-29.794
						l-4.073-38.934c-1.828-17.382,3.656-34.829,14.977-47.818c11.321-13.021,27.549-20.493,44.514-20.493h15.49
						c1.315,0,2.63,0.128,3.945,0.224c-6.382,12.091-21.616,43.488-21.359,66.483c0.096,9.429,4.201,18.377,11.225,24.566
						c6.895,6.093,17.575,13.662,29.217,15.234c1.122,0.16,2.245,0.257,3.4,0.257c3.4,0,6.927-0.673,10.519-1.988
						C194.281,151.048,202.075,148.45,209.804,146.943z M117.761,105.347c0-6.158-4.811-11.129-10.776-11.129
						c-5.933,0-10.776,4.971-10.776,11.129c0,6.126,4.843,11.096,10.776,11.096C112.95,116.443,117.761,111.472,117.761,105.347z"/>
					<path style="fill:#505967;" d="M198.066,68.113c11.321,13.021,16.773,30.467,14.977,47.85l-1.443,13.63
						c-10.006,1.379-20.397,4.746-26.523,6.959c-2.373,0.866-4.522,1.187-6.382,0.93c-5.965-0.802-13.341-4.843-20.718-11.353
						c-3.464-3.047-5.484-7.408-5.516-11.93c-0.225-19.659,15.554-51.762,21.744-62.666
						C183.249,54.996,191.491,60.576,198.066,68.113z M193.031,105.347c0-6.158-4.811-11.129-10.776-11.129
						c-5.933,0-10.776,4.971-10.776,11.129c0,6.126,4.843,11.096,10.776,11.096C188.22,116.443,193.031,111.472,193.031,105.347z"/>
					<path style="fill:#505967;" d="M244.312,80.299c1.379,4.041,1.187,8.435-0.609,12.283c-1.796,3.881-4.971,6.831-8.884,8.242
						l-5.452,1.988c-1.187-14.528-6.254-28.479-14.721-40.281l6.254-2.277c1.7-0.609,3.464-0.93,5.163-0.93
						c6.446,0,12.476,4.137,14.72,10.712L244.312,80.299z"/>
					<path style="fill:#2D213F;" d="M259.706,74.687c2.854,8.274,2.405,17.222-1.283,25.144
						c-3.656,7.954-10.102,13.951-18.152,16.869l-9.942,3.624c-0.449,0.192-0.93,0.289-1.379,0.449l-3.752,35.919
						c-1.571,15.105-7.28,28.703-15.779,39.896c8.884,10.006,14.368,23.251,14.368,37.844c0,30.98-24.438,56.188-54.456,56.188
						h-50.287c-30.05,0-54.488-25.208-54.488-56.188c0-15.554,6.19-29.633,16.132-39.832c-7.665-10.808-12.796-23.7-14.272-37.908
						l-3.72-35.695c-0.802-0.224-1.604-0.385-2.405-0.673l-9.942-3.624c-8.05-2.918-14.496-8.916-18.152-16.869
						c-3.688-7.921-4.137-16.869-1.283-25.144l3.528-10.263c2.854-8.274,8.659-14.945,16.356-18.729s16.356-4.233,24.374-1.315
						l9.974,3.656c0.096,0.032,0.192,0.096,0.321,0.128c-0.866-13.181-0.673-26.202,0.577-38.87
						c0.417-4.233,3.239-7.729,7.216-8.884c3.977-1.187,8.21,0.257,10.744,3.624c6.607,8.819,21.68,23.7,26.17,26.779
						c0.353,0.096,0.673,0.257,0.994,0.385c2.309-0.224,4.586-0.385,6.895-0.385h15.49c2.053,0,4.073,0.16,6.093,0.353
						c0.289-0.128,0.577-0.289,0.898-0.353c4.458-3.079,19.563-17.96,26.17-26.779c2.534-3.367,6.767-4.811,10.744-3.624
						c3.945,1.155,6.799,4.65,7.216,8.884c1.219,12.668,1.411,25.657,0.577,38.838c0.064-0.032,0.16-0.096,0.225-0.096l9.974-3.656
						c16.613-6.061,34.861,2.951,40.73,20.044L259.706,74.687z M243.703,92.583c1.796-3.849,1.988-8.242,0.609-12.283l-3.528-10.263
						c-2.245-6.575-8.274-10.712-14.721-10.712c-1.7,0-3.464,0.321-5.163,0.93l-6.254,2.277
						c8.467,11.802,13.534,25.753,14.72,40.281l5.452-1.988C238.732,99.414,241.907,96.463,243.703,92.583z M213.043,115.962
						c1.796-17.382-3.656-34.829-14.977-47.85c-6.575-7.537-14.817-13.117-23.861-16.581c-6.19,10.904-21.968,43.007-21.744,62.666
						c0.032,4.522,2.053,8.884,5.516,11.93c7.376,6.51,14.753,10.551,20.718,11.353c1.86,0.257,4.009-0.064,6.382-0.93
						c6.126-2.213,16.516-5.58,26.523-6.959L213.043,115.962z M208.97,154.896l0.834-7.954c-7.729,1.507-15.522,4.105-19.307,5.484
						c-3.592,1.315-7.12,1.988-10.519,1.988c-1.155,0-2.277-0.096-3.4-0.257c-11.642-1.571-22.321-9.14-29.217-15.234
						c-7.023-6.19-11.129-15.137-11.225-24.566c-0.257-22.995,14.977-54.392,21.359-66.483c-1.315-0.096-2.63-0.224-3.945-0.224
						h-15.49c-16.965,0-33.193,7.472-44.514,20.493c-11.32,12.99-16.804,30.437-14.976,47.819l4.073,38.934
						c1.187,11.161,5.195,21.295,11.225,29.794c7.537-4.073,16.1-6.414,25.176-6.414h50.287c10.006,0,19.371,2.854,27.421,7.729
						C203.325,177.282,207.719,166.634,208.97,154.896z M207.463,234.432c0-21.68-17.126-39.319-38.132-39.319h-50.287
						c-21.038,0-38.132,17.639-38.132,39.319c0,21.712,17.094,39.351,38.132,39.351h50.287
						C190.337,273.783,207.463,256.144,207.463,234.432z M189.246,40.115c0.16-4.65,0.224-9.268,0.128-13.823
						c-2.502,2.662-5.195,5.42-7.857,8.05c-0.577,0.545-1.026,0.962-1.539,1.475C183.153,37.036,186.264,38.447,189.246,40.115z
						 M110.994,36.074c-0.577-0.577-1.187-1.122-1.796-1.732c-2.694-2.63-5.356-5.388-7.857-8.05
						c-0.128,4.714-0.032,9.493,0.128,14.272C104.547,38.832,107.722,37.357,110.994,36.074z M76.742,62.821l-7.024-2.566
						c-3.913-1.411-8.146-1.187-11.898,0.641c-3.752,1.86-6.607,5.099-7.986,9.14l-3.528,10.263
						c-1.379,4.041-1.155,8.435,0.609,12.283c1.796,3.881,4.971,6.831,8.884,8.242l6.414,2.341
						C63.336,88.638,68.307,74.623,76.742,62.821z"/>
					<path style="fill:#2D213F;" d="M182.255,94.218c5.965,0,10.776,4.971,10.776,11.129c0,6.126-4.811,11.096-10.776,11.096
						c-5.933,0-10.776-4.971-10.776-11.096C171.479,99.189,176.322,94.218,182.255,94.218z"/>
					<path style="fill:#2D213F;" d="M174.269,224.329c5.869,0,10.648,4.939,10.648,11s-4.779,10.968-10.648,10.968
						c-5.901,0-10.68-4.907-10.68-10.968C163.59,229.268,168.368,224.329,174.269,224.329z"/>
					<path style="fill:#2D213F;" d="M116.349,224.329c5.901,0,10.68,4.939,10.68,11s-4.779,10.968-10.68,10.968
						c-5.869,0-10.648-4.907-10.648-10.968C105.702,229.268,110.48,224.329,116.349,224.329z"/>
					<path style="fill:#2D213F;" d="M106.985,94.218c5.965,0,10.776,4.971,10.776,11.129c0,6.126-4.811,11.096-10.776,11.096
						c-5.933,0-10.776-4.971-10.776-11.096C96.209,99.189,101.052,94.218,106.985,94.218z"/>
				</g>
			</g>
		</g>
		<path style="fill:#505967;" d="M169.33,195.113h-31.56c-6.241,6.193-9.91,13.524-9.91,21.41c0,22.061,28.306,39.947,63.224,39.947
			c3.467,0,6.841-0.224,10.157-0.561c3.919-6.18,6.222-13.55,6.222-21.475C207.463,212.752,190.337,195.113,169.33,195.113z
			 M174.269,246.298c-5.901,0-10.68-4.907-10.68-10.968s4.779-11,10.68-11c5.869,0,10.648,4.939,10.648,11
			C184.917,241.391,180.138,246.298,174.269,246.298z"/>
	</g>
</g>
</svg>